<?xml version="1.0" encoding="utf-8"?>
<svg width="244" height="33" viewBox="0 0 244 33" fill="none" xmlns="http://www.w3.org/2000/svg" xmlns:bx="https://boxy-svg.com">
  <defs>
    <bx:guide x="33.781" y="23.064" angle="90"/>
    <bx:guide x="5.633" y="9.793" angle="0"/>
    <bx:guide x="-0.474" y="12.291" angle="0"/>
    <bx:guide x="237.576" y="46.806" angle="0"/>
    <bx:guide x="244.06" y="42.652" angle="0"/>
    <bx:guide x="20.418" y="9.769" angle="90"/>
    <bx:guide x="109.04" y="39.554" angle="0"/>
    <bx:guide x="132.431" y="-1.128" angle="0"/>
  </defs>
  <path d="M19.1048 13.2843C19.0614 12.6337 18.8879 11.9831 18.5409 11.4193L15.5915 6.25783C15.3747 5.86747 15.2012 5.43373 15.1144 5L14.9843 5.21687C14.247 6.4747 14.247 8.07952 14.9843 9.33735L17.3698 13.4578C18.1072 14.7157 18.1072 16.3205 17.3698 17.5783L17.2397 17.7952C17.153 17.3614 16.9795 16.9277 16.7626 16.5373L14.5939 12.7639L13.206 10.3349C12.9891 9.94458 12.8156 9.51084 12.7289 9.07711L12.5988 9.29398C11.8614 10.5518 11.8614 12.1133 12.5988 13.4145L14.9843 17.5349C15.7217 18.7928 15.7217 20.3976 14.9843 21.6554L14.8542 21.8723C14.7674 21.4386 14.5939 21.0048 14.3771 20.6145L11.3843 15.453C10.9939 14.759 10.8205 13.9783 10.8205 13.1976C7.65419 14.0217 5.44214 15.8 5.44214 17.8386C5.44214 20.7012 9.69274 23 14.9409 23C20.1891 23 24.4397 20.7012 24.4397 17.8386C24.4831 15.8867 22.3144 14.1084 19.1048 13.2843ZM28.0831 22.0892C28.1265 21.3518 28.2132 20.8747 28.4301 20.2675C29.4277 20.7446 30.7289 20.9614 31.6831 20.9614C33.3313 20.9614 34.2855 20.441 34.2855 19.3566C34.2855 18.3157 33.5915 17.8386 31.9433 17.1012L31.0325 16.7542C29.3409 16.0169 28.2132 15.0627 28.2132 13.1976C28.2132 11.159 29.6445 9.85783 32.5072 9.85783C33.6783 9.85783 34.7626 10.0313 35.7602 10.3783C35.7168 11.0723 35.5867 11.6361 35.4132 12.1566C34.459 11.8096 33.2879 11.6361 32.4638 11.6361C30.9024 11.6361 30.2084 12.2434 30.2084 13.1976C30.2084 14.1084 30.9024 14.6723 32.1602 15.1928L33.1144 15.5831C35.3698 16.5373 36.3241 17.5783 36.3241 19.3133C36.3241 21.3518 34.7626 22.7831 31.7265 22.7831C30.2951 22.7831 29.0807 22.5663 28.0831 22.0892ZM45.9096 13.5446V22.4795H44.0879L44.0012 21.3952C43.4807 22.1759 42.7433 22.6964 41.4855 22.6964C39.1433 22.6964 37.5385 20.9614 37.5385 17.9687C37.5385 14.8458 39.2301 13.0241 42.5265 13.0241C43.8277 13.0675 44.912 13.1976 45.9096 13.5446ZM43.9578 20.441V14.8458C43.5674 14.759 43.0903 14.759 42.5265 14.759C40.4879 14.759 39.5337 16.0169 39.5337 18.012C39.5337 19.8337 40.2711 21.1349 42.006 21.1349C42.8301 21.0916 43.4373 20.8313 43.9578 20.441ZM55.9723 16.494V22.4795H54.0205V16.841C54.0205 15.4096 53.5433 14.759 51.5915 14.759C51.1144 14.759 50.5939 14.8024 50.0301 14.8892V22.4795H48.0783V13.5446C49.3361 13.241 50.7241 13.0241 51.6349 13.0241C54.9313 13.0675 55.9723 14.3253 55.9723 16.494ZM61.4373 21.0482C62.0012 21.0482 62.565 20.9614 62.9554 20.788C62.912 21.3084 62.8253 21.9157 62.7385 22.4361C62.218 22.653 61.6108 22.7398 61.0903 22.7398C59.1819 22.7398 57.9674 21.8723 57.9674 19.7036V10.2916C58.5747 10.0747 59.312 9.98795 59.9192 9.98795V13.3711H63.0421C62.9988 13.9783 62.9554 14.5422 62.8686 15.0627H59.9192V19.4434C59.9192 20.5711 60.4831 21.0482 61.4373 21.0482ZM71.9771 13.5446V22.4795H70.1554L70.0686 21.3952C69.5482 22.1759 68.8108 22.6964 67.553 22.6964C65.2108 22.6964 63.606 20.9614 63.606 17.9687C63.606 14.8458 65.2976 13.0241 68.5939 13.0241C69.8952 13.0675 70.9361 13.1976 71.9771 13.5446ZM69.9819 20.441V14.8458C69.5915 14.759 69.1144 14.759 68.5506 14.759C66.512 14.759 65.5578 16.0169 65.5578 18.012C65.5578 19.8337 66.2951 21.1349 68.0301 21.1349C68.8542 21.0916 69.5048 20.8313 69.9819 20.441ZM82.0397 16.494V22.4795H80.0445V16.841C80.0445 15.4096 79.5674 14.759 77.6156 14.759C77.1385 14.759 76.618 14.8024 76.0542 14.8892V22.4795H74.1024V13.5446C75.3602 13.241 76.7482 13.0241 77.659 13.0241C80.9554 13.0675 82.0397 14.3253 82.0397 16.494ZM91.9723 9.98795V22.4795H90.1506L90.0638 21.3518C89.5433 22.1759 88.806 22.6964 87.5048 22.6964C85.1626 22.6964 83.5578 20.9614 83.5578 17.9687C83.5578 14.8458 85.2494 13.0241 88.5458 13.0241C89.0662 13.0241 89.5433 13.0675 90.0204 13.1542V10.2048C90.6277 10.0313 91.3217 9.98795 91.9723 9.98795ZM90.0204 20.441V14.9325C89.5 14.8458 88.9795 14.759 88.459 14.759C86.5072 14.759 85.5964 15.9735 85.5964 18.012C85.5964 19.8337 86.3337 21.1349 88.0686 21.1349C88.8494 21.0916 89.5 20.8313 90.0204 20.441ZM101.861 18.6627H95.5723C95.8325 20.2675 96.7433 21.0048 98.5217 21.0048C99.606 21.0048 100.69 20.788 101.645 20.3108C101.558 20.8313 101.471 21.5253 101.341 22.0892C100.43 22.4795 99.5192 22.653 98.4349 22.653C95.1385 22.653 93.5771 20.8313 93.5771 17.7952C93.5771 15.1494 94.7915 13.0241 97.9144 13.0241C100.734 13.0241 101.948 14.8458 101.948 17.1012C101.948 17.7084 101.948 18.1422 101.861 18.6627ZM95.5723 17.0145H99.9964C99.9964 15.5398 99.2156 14.6723 97.8711 14.6723C96.4397 14.7157 95.7024 15.4964 95.5723 17.0145ZM108.758 13.1542C108.758 13.7614 108.671 14.4554 108.584 14.8458C108.107 14.8024 107.673 14.759 107.11 14.759C106.632 14.759 106.155 14.8024 105.678 14.8458V22.4795H103.726V13.5446C104.551 13.241 105.982 13.0241 107.066 13.0241C107.63 13.0675 108.324 13.0675 108.758 13.1542Z" fill="#EA1D25"/>
  <line x1="120.5" y1="5" x2="120.5" y2="28" stroke="#D81E05"/>
  <path d="M 145.589 9.769 C 145.604 9.769 145.621 9.769 145.637 9.769 C 146.466 9.774 147.287 10.011 147.965 10.511 C 147.981 10.523 148.004 10.536 148.021 10.549 C 148.332 10.779 148.619 11.047 148.849 11.354 C 148.858 11.363 148.865 11.375 148.874 11.384 C 149.296 11.943 149.567 12.607 149.679 13.302 C 149.679 13.327 149.679 13.327 149.689 13.349 C 149.941 15.007 149.176 16.672 148.261 17.986 C 148.158 18.13 148.044 18.267 147.941 18.403 C 147.901 18.45 147.862 18.497 147.828 18.54 C 147.759 18.63 147.686 18.71 147.614 18.791 C 147.572 18.834 147.534 18.877 147.502 18.919 C 147.453 18.974 147.4 19.03 147.351 19.082 C 147.32 19.115 147.287 19.149 147.255 19.183 C 147.144 19.32 147.015 19.448 146.88 19.564 C 146.85 19.594 146.816 19.625 146.784 19.657 C 146.73 19.712 146.673 19.762 146.618 19.811 C 146.585 19.842 146.554 19.873 146.515 19.904 C 146.387 20.021 146.25 20.133 146.117 20.241 C 146.076 20.275 146.035 20.309 145.988 20.345 C 144.831 21.308 143.46 22.045 137.925 23.124 C 137.16 23.039 136.419 22.816 135.724 22.48 C 135.709 22.471 135.693 22.463 135.679 22.455 C 135.288 22.265 134.92 22.044 134.57 21.781 C 134.562 21.774 134.555 21.765 134.537 21.757 C 134.138 21.452 133.749 21.101 133.438 20.697 C 133.422 20.675 133.405 20.655 133.381 20.634 C 133.174 20.369 132.999 20.081 132.841 19.777 C 132.83 19.758 132.83 19.758 132.825 19.739 C 132.472 19.055 132.313 18.195 132.53 17.444 C 132.616 17.185 132.735 16.945 132.912 16.741 C 132.927 16.728 132.934 16.716 132.951 16.698 C 133.286 16.289 133.804 16.089 134.323 16.042 C 135.303 15.983 136.299 16.294 137.217 16.618 C 137.281 16.639 137.337 16.66 137.391 16.677 C 138.581 17.095 139.736 17.636 140.877 18.178 C 140.901 18.19 140.924 18.199 140.948 18.212 C 141.491 18.463 142.024 18.723 142.55 18.987 C 142.575 18.996 142.575 18.996 142.59 19.008 C 142.608 19.013 142.614 19.017 142.631 19.026 C 142.742 19.082 142.863 19.136 142.974 19.196 C 143.142 19.273 143.301 19.354 143.46 19.439 C 143.596 19.507 143.73 19.574 143.867 19.639 C 143.978 19.692 144.081 19.745 144.186 19.8 C 144.201 19.806 144.21 19.813 144.225 19.819 C 144.289 19.853 144.361 19.887 144.426 19.921 C 144.449 19.934 144.473 19.946 144.495 19.959 C 144.504 19.965 144.52 19.97 144.529 19.976 C 144.575 20.002 144.608 20.016 144.664 20.016 C 144.504 19.86 144.504 19.86 144.329 19.712 C 144.25 19.643 144.17 19.567 144.097 19.488 C 144.043 19.439 143.995 19.387 143.946 19.341 C 143.817 19.234 143.708 19.115 143.603 18.992 C 143.564 18.945 143.523 18.902 143.484 18.86 C 143.372 18.74 143.268 18.616 143.173 18.489 C 143.149 18.467 143.134 18.45 143.118 18.429 C 142.902 18.156 142.704 17.871 142.52 17.568 C 142.511 17.559 142.511 17.546 142.504 17.539 C 142 16.728 141.675 15.846 141.515 14.904 C 141.507 14.887 141.507 14.865 141.498 14.845 C 141.411 14.278 141.403 13.63 141.532 13.063 C 141.537 13.038 141.537 13.038 141.537 13.008 C 141.69 12.321 142.015 11.678 142.488 11.158 C 142.52 11.12 142.55 11.081 142.582 11.044 C 143.315 10.187 144.489 9.764 145.589 9.769 Z" fill="#FF002D" style="stroke-width: 1;"/>
  <path d="M 170.266 13.526 C 170.281 13.53 170.305 13.53 170.321 13.534 C 170.734 13.594 171.143 13.709 171.524 13.875 C 171.541 13.879 171.556 13.888 171.565 13.892 C 171.996 14.079 172.386 14.352 172.721 14.684 C 172.729 14.693 172.737 14.706 172.753 14.718 C 173.063 15.026 173.063 15.026 173.151 15.162 C 173.151 15.175 173.151 15.187 173.151 15.201 C 173.247 15.116 173.334 15.026 173.423 14.936 C 173.533 14.825 173.639 14.723 173.766 14.63 C 173.774 14.621 173.782 14.612 173.79 14.603 C 174.85 13.781 176.135 13.466 177.449 13.466 C 177.473 13.466 177.473 13.466 177.505 13.466 C 178.302 13.466 179.099 13.589 179.833 13.93 C 179.855 13.939 179.855 13.939 179.88 13.951 C 180.209 14.101 180.513 14.297 180.774 14.535 C 180.782 14.545 180.789 14.552 180.798 14.561 C 180.862 14.621 180.926 14.681 180.989 14.74 C 181.006 14.753 181.021 14.766 181.028 14.779 C 181.802 15.546 182.168 16.735 182.201 17.809 C 182.201 17.868 182.201 17.924 182.201 17.979 C 182.201 18.001 182.201 18.022 182.201 18.047 C 182.201 18.115 182.201 18.188 182.201 18.256 C 182.201 18.307 182.201 18.359 182.201 18.41 C 182.201 18.521 182.201 18.632 182.201 18.742 C 182.201 18.9 182.201 19.057 182.201 19.215 C 182.201 19.473 182.201 19.731 182.201 19.988 C 182.201 20.238 182.201 20.488 182.201 20.738 C 182.201 20.754 182.201 20.769 182.201 20.786 C 182.201 20.908 182.201 21.029 182.201 21.151 C 182.201 21.747 182.201 22.344 182.201 22.94 C 181.301 22.94 180.399 22.94 179.475 22.94 C 179.475 22.583 179.475 22.226 179.475 21.858 C 179.475 21.631 179.475 21.405 179.475 21.178 C 179.475 21.059 179.475 20.941 179.475 20.822 C 179.475 20.807 179.475 20.792 179.475 20.776 C 179.467 20.536 179.467 20.295 179.467 20.055 C 179.467 19.808 179.467 19.562 179.467 19.314 C 179.467 19.164 179.467 19.011 179.467 18.861 C 179.467 18.754 179.467 18.649 179.467 18.547 C 179.467 18.486 179.467 18.427 179.467 18.366 C 179.467 17.68 179.387 17.012 178.891 16.496 C 178.279 15.904 177.344 15.836 176.541 15.857 C 175.751 15.883 174.891 16.066 174.3 16.65 C 174.292 16.666 174.276 16.684 174.259 16.696 C 174.243 16.713 174.228 16.726 174.212 16.743 C 174.203 16.756 174.189 16.765 174.18 16.777 C 174.077 16.875 174.051 16.948 174.051 17.089 C 174.051 17.109 174.051 17.135 174.051 17.157 C 174.051 17.182 174.051 17.208 174.051 17.234 C 174.051 17.301 174.051 17.37 174.051 17.438 C 174.051 17.511 174.051 17.587 174.051 17.66 C 174.051 17.787 174.051 17.915 174.051 18.043 C 174.051 18.226 174.051 18.415 174.051 18.598 C 174.051 18.9 174.051 19.198 174.051 19.499 C 174.051 19.79 174.051 20.082 174.051 20.373 C 174.051 20.39 174.051 20.409 174.051 20.428 C 174.051 20.57 174.051 20.711 174.051 20.853 C 174.051 21.549 174.051 22.245 174.051 22.94 C 173.143 22.94 172.242 22.94 171.31 22.94 C 171.31 22.575 171.31 22.21 171.31 21.834 C 171.31 21.603 171.31 21.372 171.31 21.14 C 171.31 21.018 171.31 20.896 171.31 20.775 C 171.31 20.753 171.31 20.753 171.31 20.729 C 171.301 20.484 171.301 20.239 171.301 19.993 C 171.301 19.741 171.301 19.488 171.301 19.236 C 171.301 19.079 171.301 18.925 171.301 18.772 C 171.301 18.665 171.301 18.554 171.301 18.448 C 171.301 18.388 171.301 18.329 171.301 18.264 C 171.301 17.612 171.197 16.987 170.734 16.5 C 170.37 16.13 169.85 15.976 169.357 15.904 C 169.34 15.899 169.324 15.899 169.307 15.895 C 168.343 15.763 167.18 15.857 166.366 16.457 C 166.104 16.662 166.104 16.662 165.904 16.926 C 165.904 16.96 165.904 16.994 165.904 17.025 C 165.904 17.045 165.904 17.067 165.904 17.089 C 165.904 17.114 165.904 17.135 165.904 17.16 C 165.904 17.186 165.904 17.208 165.904 17.234 C 165.904 17.301 165.904 17.37 165.904 17.443 C 165.895 17.514 165.895 17.587 165.895 17.66 C 165.895 17.787 165.895 17.915 165.895 18.043 C 165.895 18.231 165.895 18.415 165.895 18.601 C 165.895 18.9 165.895 19.198 165.895 19.499 C 165.895 19.79 165.895 20.082 165.895 20.373 C 165.895 20.391 165.895 20.409 165.888 20.428 C 165.888 20.57 165.888 20.712 165.888 20.854 C 165.888 21.549 165.888 22.245 165.888 22.94 C 164.985 22.94 164.085 22.94 163.162 22.94 C 163.162 19.894 163.162 16.85 163.162 13.709 C 164.013 13.709 164.867 13.709 165.745 13.709 C 165.745 14.11 165.752 14.51 165.761 14.923 C 165.888 14.796 166.008 14.667 166.135 14.535 C 166.239 14.455 166.332 14.374 166.445 14.297 C 166.454 14.288 166.471 14.28 166.478 14.272 C 167.546 13.487 168.989 13.346 170.266 13.526 Z" fill="#FF002D" style="stroke-width: 1;"/>
  <path d="M 204.182 13.466 C 204.2 13.466 204.216 13.466 204.231 13.466 C 204.487 13.466 204.743 13.475 205.004 13.508 C 205.02 13.508 205.045 13.512 205.069 13.517 C 205.706 13.602 206.329 13.768 206.91 14.058 C 206.927 14.066 206.942 14.076 206.959 14.083 C 207.572 14.395 208.145 14.83 208.568 15.384 C 208.584 15.401 208.601 15.418 208.608 15.435 C 209.366 16.393 209.646 17.668 209.525 18.874 C 209.416 19.853 209.024 20.774 208.362 21.493 C 208.329 21.528 208.298 21.563 208.273 21.601 C 208.235 21.643 208.203 21.679 208.163 21.713 C 208.106 21.761 208.051 21.81 208.003 21.859 C 206.895 22.87 205.308 23.25 203.857 23.17 C 203.834 23.169 203.809 23.168 203.779 23.166 C 203.761 23.165 203.761 23.165 203.744 23.163 C 202.509 23.085 201.194 22.674 200.276 21.797 C 200.237 21.758 200.237 21.758 200.172 21.708 C 200.167 23.121 200.157 24.536 200.151 25.993 C 199.257 25.993 198.355 25.993 197.431 25.993 C 197.431 21.939 197.431 17.885 197.431 13.709 C 198.284 13.709 199.127 13.709 200.007 13.709 C 200.013 14.113 200.022 14.522 200.029 14.94 C 200.093 14.881 200.157 14.821 200.221 14.757 C 200.276 14.718 200.324 14.681 200.372 14.642 C 200.397 14.625 200.397 14.625 200.421 14.612 C 200.581 14.493 200.755 14.386 200.93 14.28 C 200.939 14.272 200.945 14.267 200.963 14.259 C 201.728 13.803 202.661 13.56 203.538 13.487 C 203.562 13.487 203.578 13.487 203.593 13.482 C 203.794 13.47 203.984 13.466 204.182 13.466 Z M 200.26 16.999 C 200.245 17.016 200.221 17.028 200.206 17.045 C 200.125 17.126 200.133 17.234 200.141 17.344 C 200.133 17.365 200.133 17.391 200.133 17.417 C 200.133 17.481 200.133 17.544 200.133 17.609 C 200.133 17.66 200.133 17.715 200.133 17.766 C 200.133 17.894 200.133 18.022 200.133 18.149 C 200.133 18.278 200.133 18.41 200.133 18.537 C 200.133 18.649 200.133 18.764 200.133 18.874 C 200.133 18.942 200.133 19.006 200.133 19.074 C 200.133 19.151 200.133 19.223 200.133 19.3 C 200.133 19.321 200.133 19.343 200.133 19.365 C 200.133 19.485 200.151 19.547 200.228 19.633 C 200.26 19.657 200.285 19.681 200.316 19.704 C 200.341 19.727 200.341 19.727 200.364 19.75 C 200.412 19.79 200.46 19.83 200.516 19.87 C 200.526 19.877 200.532 19.886 200.541 19.893 C 200.724 20.035 200.906 20.15 201.105 20.256 C 201.121 20.262 201.129 20.27 201.145 20.277 C 201.818 20.631 202.606 20.79 203.355 20.792 C 203.37 20.793 203.396 20.793 203.41 20.793 C 203.459 20.793 203.499 20.793 203.538 20.793 C 203.593 20.793 203.656 20.793 203.721 20.794 C 204.471 20.798 205.308 20.657 205.922 20.182 C 205.938 20.17 205.954 20.157 205.97 20.144 C 206.463 19.749 206.727 19.228 206.807 18.601 C 206.878 18.001 206.743 17.387 206.377 16.909 C 206.354 16.875 206.321 16.845 206.297 16.816 C 206.28 16.794 206.28 16.794 206.264 16.773 C 205.762 16.172 204.917 15.924 204.177 15.861 C 204.153 15.861 204.137 15.857 204.119 15.857 C 203.951 15.844 203.794 15.839 203.625 15.839 C 203.609 15.839 203.601 15.839 203.585 15.839 C 202.381 15.844 201.155 16.142 200.26 16.999 Z" fill="#FF002D" style="stroke-width: 1;"/>
  <path d="M 188.874 13.466 C 188.89 13.466 188.906 13.466 188.921 13.466 C 189.894 13.47 190.828 13.666 191.714 14.058 C 191.729 14.066 191.745 14.071 191.762 14.079 C 192.223 14.284 192.693 14.578 193.053 14.94 C 193.053 14.535 193.061 14.127 193.07 13.709 C 193.921 13.709 194.767 13.709 195.644 13.709 C 195.644 16.756 195.644 19.801 195.644 22.94 C 194.791 22.94 193.946 22.94 193.07 22.94 C 193.061 22.534 193.053 22.128 193.053 21.708 C 192.966 21.781 192.886 21.854 192.797 21.93 C 192.752 21.966 192.702 22.004 192.653 22.04 C 192.638 22.047 192.624 22.057 192.613 22.066 C 192.454 22.176 192.294 22.274 192.128 22.37 C 192.121 22.378 192.104 22.384 192.097 22.392 C 191.02 23.025 189.689 23.242 188.459 23.166 C 188.437 23.165 188.437 23.165 188.421 23.163 C 187.264 23.089 186.14 22.72 185.223 21.984 C 185.206 21.969 185.191 21.954 185.167 21.939 C 184.887 21.706 184.626 21.439 184.419 21.138 C 184.409 21.127 184.401 21.116 184.394 21.106 C 183.907 20.426 183.644 19.652 183.547 18.823 C 183.547 18.801 183.547 18.776 183.54 18.754 C 183.427 17.507 183.796 16.257 184.586 15.294 C 184.76 15.077 184.953 14.877 185.174 14.702 C 185.191 14.684 185.215 14.672 185.232 14.655 C 186.251 13.811 187.576 13.466 188.874 13.466 Z M 187.008 16.577 C 186.994 16.59 186.978 16.607 186.962 16.62 C 186.754 16.794 186.611 17.02 186.491 17.26 C 186.482 17.276 186.475 17.293 186.459 17.31 C 186.204 17.856 186.188 18.542 186.371 19.118 C 186.554 19.624 186.898 20.041 187.352 20.31 C 187.367 20.318 187.377 20.323 187.383 20.33 C 187.933 20.652 188.586 20.79 189.218 20.792 C 189.234 20.793 189.249 20.793 189.274 20.793 C 189.329 20.793 189.393 20.793 189.449 20.793 C 189.475 20.793 189.489 20.793 189.513 20.793 C 189.832 20.793 190.143 20.785 190.453 20.734 C 190.478 20.731 190.493 20.727 190.518 20.724 C 191.426 20.572 192.263 20.213 192.925 19.539 C 192.933 19.495 192.933 19.495 192.933 19.445 C 192.933 19.424 192.933 19.402 192.933 19.381 C 192.933 19.36 192.933 19.339 192.933 19.318 C 192.933 19.292 192.933 19.27 192.933 19.245 C 192.933 19.168 192.933 19.092 192.933 19.015 C 192.933 19.001 192.933 18.985 192.933 18.972 C 192.94 18.849 192.94 18.725 192.94 18.601 C 192.94 18.44 192.94 18.281 192.95 18.124 C 192.95 18.009 192.95 17.897 192.95 17.787 C 192.95 17.719 192.95 17.655 192.95 17.587 C 192.973 17.263 192.973 17.263 192.837 16.987 C 192.797 16.948 192.752 16.909 192.702 16.875 C 192.653 16.841 192.607 16.798 192.558 16.76 C 192.519 16.73 192.478 16.701 192.439 16.671 C 192.424 16.662 192.414 16.654 192.399 16.645 C 191.545 16.049 190.493 15.836 189.475 15.839 C 189.458 15.839 189.441 15.839 189.433 15.839 C 188.571 15.839 187.695 16.014 187.008 16.577 Z" fill="#FF002D" style="stroke-width: 1;"/>
  <path d="M 232.107 13.466 C 232.123 13.466 232.138 13.466 232.161 13.466 C 232.441 13.466 232.721 13.47 232.991 13.508 C 233.032 13.512 233.032 13.512 233.061 13.517 C 234.354 13.683 235.696 14.216 236.525 15.294 C 237.178 16.159 237.433 17.174 237.36 18.256 C 237.36 18.278 237.36 18.295 237.36 18.315 C 237.336 18.563 237.297 18.81 237.265 19.062 C 234.537 19.062 231.803 19.062 228.997 19.062 C 229.093 19.454 229.197 19.787 229.46 20.089 C 229.474 20.102 229.484 20.113 229.492 20.124 C 229.666 20.317 229.897 20.445 230.129 20.55 C 230.146 20.557 230.146 20.557 230.167 20.567 C 230.535 20.732 230.934 20.809 231.333 20.862 C 231.358 20.865 231.374 20.868 231.396 20.871 C 232.146 20.971 232.984 20.973 233.733 20.867 C 233.772 20.862 233.813 20.857 233.853 20.851 C 234.769 20.73 235.711 20.524 236.539 20.094 C 236.579 20.072 236.579 20.072 236.618 20.072 C 236.627 20.083 236.627 20.094 236.633 20.106 C 236.747 20.322 236.868 20.535 236.987 20.747 C 237.064 20.896 237.153 21.048 237.232 21.2 C 237.321 21.369 237.418 21.539 237.512 21.705 C 237.52 21.719 237.527 21.734 237.535 21.749 C 237.545 21.762 237.55 21.775 237.561 21.788 C 237.576 21.819 237.576 21.819 237.576 21.856 C 237.535 21.885 237.496 21.912 237.457 21.938 C 237.441 21.95 237.441 21.95 237.425 21.963 C 236.03 22.882 234.243 23.143 232.258 23.18 C 232.234 23.179 232.218 23.179 232.201 23.178 C 230.688 23.147 229.036 22.859 227.856 21.819 C 227.84 21.806 227.826 21.793 227.816 21.779 C 226.949 21.003 226.494 19.916 226.421 18.75 C 226.349 17.408 226.645 16.117 227.537 15.098 C 227.634 14.991 227.729 14.884 227.84 14.796 C 227.856 14.779 227.881 14.762 227.897 14.744 C 229.069 13.76 230.623 13.466 232.107 13.466 Z M 229.531 16.193 C 229.522 16.202 229.509 16.215 229.498 16.227 C 229.203 16.505 229.069 16.884 228.997 17.276 C 230.974 17.276 232.952 17.276 234.992 17.276 C 234.986 17.157 234.967 17.063 234.927 16.952 C 234.927 16.935 234.922 16.923 234.913 16.906 C 234.754 16.437 234.412 16.074 233.973 15.857 C 233.39 15.58 232.753 15.507 232.113 15.507 C 232.091 15.507 232.091 15.507 232.073 15.507 C 231.212 15.511 230.208 15.575 229.531 16.193 Z" fill="#FF002D" style="stroke-width: 1;"/>
  <path d="M 158.002 16.551 C 158.449 16.964 158.649 17.494 158.679 18.094 C 158.705 19.304 158.057 20.34 157.268 21.181 C 157.197 21.25 157.132 21.314 157.061 21.377 C 157.029 21.405 156.997 21.433 156.966 21.461 C 155.626 22.661 153.815 23.274 152.046 23.163 C 150.293 23.051 148.672 22.289 147.055 21.466 C 147.006 21.439 146.95 21.411 146.896 21.383 C 146.847 21.357 146.79 21.329 146.736 21.303 C 146.712 21.288 146.712 21.288 146.68 21.274 C 146.576 21.219 146.464 21.162 146.362 21.101 C 146.385 21.033 146.402 21.026 146.464 20.99 C 146.489 20.974 146.489 20.974 146.513 20.957 C 146.544 20.939 146.544 20.939 146.576 20.921 C 146.616 20.896 146.656 20.871 146.696 20.846 C 146.712 20.834 146.736 20.821 146.751 20.808 C 146.839 20.753 146.928 20.695 147.015 20.639 C 147.055 20.617 147.086 20.595 147.118 20.574 C 147.134 20.564 147.15 20.554 147.166 20.542 C 147.564 20.285 147.964 20.03 148.362 19.777 C 148.377 19.766 148.401 19.755 148.419 19.743 C 148.897 19.445 149.367 19.151 149.845 18.861 C 149.908 18.827 149.964 18.789 150.021 18.754 C 150.699 18.346 151.383 17.946 152.086 17.578 C 152.14 17.544 152.195 17.514 152.261 17.484 C 153.671 16.717 155.634 15.686 158.002 16.551 Z" fill="#FF002D" style="stroke-width: 1;"/>
  <path d="M 216.949 9.847 C 216.989 9.852 216.989 9.852 217.02 9.856 C 217.548 9.915 218.065 10.022 218.575 10.159 C 218.582 10.372 218.561 10.576 218.536 10.785 C 218.536 10.823 218.527 10.862 218.527 10.9 C 218.521 11.002 218.512 11.105 218.497 11.207 C 218.487 11.309 218.481 11.417 218.472 11.518 C 218.448 11.722 218.432 11.923 218.408 12.128 C 218.353 12.144 218.313 12.144 218.257 12.136 C 218.24 12.136 218.224 12.132 218.209 12.132 C 218.177 12.128 218.177 12.128 218.152 12.123 C 218.129 12.119 218.113 12.115 218.098 12.115 C 218.058 12.106 218.008 12.103 217.97 12.098 C 217.866 12.08 217.755 12.068 217.65 12.051 C 217.627 12.047 217.611 12.047 217.588 12.042 C 217.302 12.004 217.02 11.97 216.734 11.944 C 216.701 11.94 216.701 11.94 216.67 11.937 C 216.39 11.91 216.112 11.902 215.833 11.902 C 215.817 11.902 215.801 11.902 215.784 11.902 C 215.473 11.902 215.155 11.919 214.844 11.987 C 214.829 11.991 214.811 11.996 214.791 11.996 C 214.407 12.08 214.054 12.251 213.832 12.592 C 213.616 12.933 213.623 13.309 213.601 13.709 C 214.924 13.709 216.256 13.709 217.62 13.709 C 217.62 14.442 217.62 15.179 217.62 15.934 C 216.295 15.934 214.964 15.934 213.601 15.934 C 213.601 18.248 213.601 20.557 213.601 22.94 C 212.699 22.94 211.807 22.94 210.882 22.94 C 210.874 21.846 210.874 21.846 210.874 21.504 C 210.874 21.492 210.874 21.479 210.874 21.468 C 210.874 21.059 210.874 20.651 210.874 20.243 C 210.874 20.23 210.874 20.216 210.874 20.203 C 210.874 19.913 210.874 19.623 210.874 19.335 C 210.874 19.189 210.874 19.049 210.874 18.908 C 210.874 18.891 210.874 18.879 210.874 18.866 C 210.874 18.405 210.874 17.949 210.874 17.494 C 210.874 17.02 210.874 16.551 210.874 16.079 C 210.874 16.014 210.874 15.946 210.874 15.878 C 210.874 15.865 210.874 15.853 210.874 15.839 C 210.874 15.631 210.874 15.418 210.874 15.209 C 210.874 14.996 210.874 14.787 210.874 14.574 C 210.874 14.459 210.874 14.344 210.874 14.229 C 210.866 13.372 210.89 12.486 211.312 11.719 C 211.328 11.685 211.344 11.654 211.361 11.62 C 211.497 11.373 211.663 11.169 211.854 10.968 C 211.862 10.955 211.871 10.943 211.886 10.93 C 212.525 10.24 213.537 9.967 214.429 9.847 C 214.446 9.844 214.468 9.844 214.485 9.839 C 215.29 9.732 216.152 9.758 216.949 9.847 Z" fill="#FF002D" style="stroke-width: 1;"/>
  <path d="M 224.969 13.466 C 224.986 13.466 225.002 13.466 225.026 13.466 C 225.282 13.466 225.528 13.47 225.783 13.508 C 225.8 13.508 225.816 13.512 225.821 13.512 C 225.975 13.534 226.119 13.573 226.253 13.637 C 226.238 13.888 226.216 14.139 226.198 14.391 C 226.19 14.433 226.19 14.476 226.181 14.518 C 226.175 14.612 226.166 14.702 226.158 14.796 C 226.15 14.91 226.136 15.03 226.126 15.145 C 226.119 15.234 226.11 15.324 226.102 15.418 C 226.093 15.46 226.093 15.503 226.087 15.546 C 226.087 15.605 226.08 15.665 226.072 15.725 C 226.072 15.741 226.072 15.763 226.072 15.78 C 226.063 15.861 226.054 15.942 226.039 16.027 C 225.926 16.014 225.816 15.993 225.703 15.976 C 225.521 15.942 225.344 15.912 225.16 15.891 C 225.145 15.891 225.13 15.891 225.122 15.891 C 224.858 15.865 224.595 15.857 224.333 15.857 C 224.31 15.857 224.31 15.857 224.285 15.857 C 223.487 15.857 222.578 15.954 221.98 16.559 C 221.78 16.756 221.78 16.756 221.701 17.016 C 221.701 17.038 221.701 17.059 221.701 17.079 C 221.701 17.114 221.701 17.114 221.701 17.148 C 221.701 17.174 221.701 17.199 221.701 17.225 C 221.701 17.293 221.701 17.361 221.701 17.429 C 221.701 17.502 221.701 17.578 221.701 17.65 C 221.701 17.779 221.701 17.907 221.701 18.034 C 221.701 18.222 221.701 18.405 221.701 18.593 C 221.701 18.891 221.701 19.194 221.701 19.492 C 221.701 19.785 221.701 20.076 221.701 20.369 C 221.701 20.387 221.701 20.405 221.701 20.423 C 221.694 20.565 221.694 20.708 221.694 20.85 C 221.694 21.546 221.694 22.243 221.694 22.94 C 220.791 22.94 219.883 22.94 218.95 22.94 C 218.95 19.894 218.95 16.85 218.95 13.709 C 219.812 13.709 220.664 13.709 221.548 13.709 C 221.557 14.105 221.557 14.497 221.564 14.906 C 221.686 14.769 221.686 14.769 221.805 14.633 C 222.028 14.364 222.347 14.164 222.649 14.002 C 222.666 13.995 222.674 13.986 222.691 13.981 C 223.391 13.602 224.181 13.466 224.969 13.466 Z" fill="#FF002D" style="stroke-width: 1;"/>
</svg>