<?xml version="1.0" encoding="UTF-8"?>
<svg version="1.1" xmlns="http://www.w3.org/2000/svg" width="6833" height="1881">
<path d="M0 0 C0.84967346 0.00215515 1.69934692 0.0043103 2.57476807 0.00653076 C48.57740156 0.19296822 94.14458799 13.39325985 131.8125 40.3125 C132.86953125 41.05886719 133.9265625 41.80523438 135.015625 42.57421875 C152.07231513 55.00952818 167.98019048 69.51425468 180.8125 86.3125 C181.23063965 86.84891113 181.6487793 87.38532227 182.07958984 87.93798828 C205.6942089 118.32425658 220.55689152 154.43902117 226.8125 192.3125 C227.00730957 193.46032959 227.00730957 193.46032959 227.20605469 194.63134766 C241.70089121 284.82820854 199.13606758 375.57783516 148 447 C142.37313328 454.75292465 136.37803076 462.19007094 130.26123047 469.55957031 C128.19255961 472.06261324 126.16267785 474.59670376 124.125 477.125 C120.29032183 481.81104708 116.25999612 486.29139912 112.16015625 490.74609375 C110.10925902 492.98808956 108.10772467 495.26041029 106.125 497.5625 C103.39716842 500.70557527 100.514604 503.63167218 97.546875 506.546875 C95.80047581 508.32474084 94.18030761 510.16735395 92.5625 512.0625 C86.147735 519.48632915 79.09903305 526.3361913 71.640625 532.703125 C69.78312012 534.33836434 68.04643991 536.04731793 66.3125 537.8125 C63.41633973 540.74744813 60.4132082 543.48978599 57.2890625 546.1796875 C55.33607535 547.86159757 53.39581535 549.55524906 51.4609375 551.2578125 C44.2460602 557.58797214 36.91764868 563.69907448 29.328125 569.57421875 C26.93989138 571.42396826 24.57831407 573.30146732 22.234375 575.20703125 C-42.19000209 627.56746729 -117.90863678 667.66147228 -425.1875 726.3125 C-467.42290732 721.75144089 -508.87687246 709.58698771 -547.1875 691.3125 C-548.12319824 690.86922363 -549.05889648 690.42594727 -550.02294922 689.96923828 C-571.6242233 679.66874692 -591.96581668 667.57456435 -611.1875 653.3125 C-611.77176758 652.8798584 -612.35603516 652.4472168 -612.95800781 652.00146484 C-635.27471614 635.37570876 -657.04761185 616.30157359 -674.1875 594.3125 C-675.12461793 593.17331812 -676.06493004 592.03675903 -677.0078125 590.90234375 C-688.90365509 576.50433847 -698.53366025 560.83982475 -707.1875 544.3125 C-707.72286377 543.2930127 -707.72286377 543.2930127 -708.26904297 542.25292969 C-727.46929038 505.11501571 -736.42851316 458.21606396 -724.28808594 417.52734375 C-719.79154399 403.41437496 -713.06980472 390.39803943 -703.1875 379.3125 C-702.55199219 378.54679687 -701.91648437 377.78109375 -701.26171875 376.9921875 C-682.46781473 354.77093826 -653.60107895 343.77122499 -625.1875 341.3125 C-570.45967019 338.02381357 -515.3477239 354.85855395 -464.24194336 372.60272217 C-461.09859261 373.68870036 -457.94701676 374.75031582 -454.796875 375.81640625 C-388.64716311 398.47685863 -324.5565743 427.91080284 -261.1875 457.3125 C-259.89193923 457.91294938 -258.59636665 458.51337328 -257.30078125 459.11376953 C-227.51258064 472.92530796 -197.84446455 486.99078749 -168.32977295 501.37741089 C-167.2809494 501.88861984 -167.2809494 501.88861984 -166.2109375 502.41015625 C-165.52316223 502.74540314 -164.83538696 503.08065002 -164.12677002 503.42605591 C-157.76605007 506.52354688 -151.38432645 509.57650053 -145 512.625 C-135.96221497 516.94442735 -126.99394096 521.39031619 -118.04614258 525.89282227 C-110.55724911 529.65224312 -103.01291391 533.28047598 -95.43798828 536.86279297 C-89.49813137 539.68719138 -83.60548914 542.59473375 -77.734375 545.55859375 C-77.00690063 545.92528168 -76.27942627 546.2919696 -75.52990723 546.66976929 C-71.90247284 548.4992959 -68.27884977 550.33586305 -64.66015625 552.18261719 C-63.33083623 552.85502941 -62.00141397 553.52723957 -60.671875 554.19921875 C-60.0604364 554.51426865 -59.4489978 554.82931854 -58.81903076 555.15391541 C-56.05048218 556.54652337 -54.33655578 557.3125 -51.1875 557.3125 C-60.24069973 548.80295231 -60.24069973 548.80295231 -69.75 540.8125 C-74.4667478 537.03085089 -78.6895995 532.927009 -82.91381836 528.61767578 C-85.62585121 525.85564134 -88.36767289 523.19978712 -91.3125 520.6875 C-98.12134398 514.86954808 -104.33812938 508.43277412 -110.15234375 501.62890625 C-112.33547914 499.14407076 -114.58623871 496.73410319 -116.85058594 494.32348633 C-122.91708597 487.8616083 -128.66762625 481.2523072 -134.1875 474.3125 C-135.10691877 473.18395458 -136.02756036 472.05640462 -136.94921875 470.9296875 C-149.04015871 456.08625707 -160.0446155 440.54591089 -170.1875 424.3125 C-170.56293945 423.71469727 -170.93837891 423.11689453 -171.32519531 422.50097656 C-198.82624529 378.47463199 -217.36516133 330.441646 -226.1875 279.3125 C-226.36829102 278.28624512 -226.54908203 277.25999023 -226.73535156 276.20263672 C-231.94725919 245.16432795 -232.01322853 210.05425149 -225.1875 179.3125 C-224.86604004 177.83185059 -224.86604004 177.83185059 -224.53808594 176.32128906 C-216.149702 138.79944942 -198.35753981 103.84912575 -172.25390625 75.56640625 C-170.42009442 73.5661994 -168.67712633 71.51906762 -166.9375 69.4375 C-125.88068854 22.7947278 -60.95880484 -0.28087462 0 0 Z " fill="#FF002D" transform="translate(1229.1875,499.6875)"/>
<path d="M0 0 C1.0302832 0.13921875 2.06056641 0.2784375 3.12207031 0.421875 C26.14419933 3.68164548 48.59457727 9.94079274 70 19 C70.73476562 19.31018066 71.46953125 19.62036133 72.2265625 19.93994141 C96.05405981 30.18034991 117.44936469 44.93387543 136 63 C136.63856934 63.61810547 137.27713867 64.23621094 137.93505859 64.87304688 C155.20834906 81.6549035 155.20834906 81.6549035 160 89 C160 89.66 160 90.32 160 91 C165.40576328 86.47681032 170.37235743 81.6420899 175.3125 76.625 C181.23842588 70.6436712 187.2856347 65.10033518 194 60 C194.53496094 59.58862793 195.06992188 59.17725586 195.62109375 58.75341797 C254.15353392 13.90841067 325.72318753 -3.20494925 398.5 -3.25 C399.98099686 -3.25101212 399.98099686 -3.25101212 401.49191284 -3.25204468 C446.00547237 -3.20403154 490.22878708 3.44362209 531 22 C532.25901123 22.56775146 532.25901123 22.56775146 533.54345703 23.14697266 C551.3911834 31.30919007 568.334625 41.90756742 583 55 C583.48758789 55.4340918 583.97517578 55.86818359 584.47753906 56.31542969 C588.03357914 59.49340421 591.52925662 62.72911685 595 66 C595.7321875 66.68964844 596.464375 67.37929688 597.21875 68.08984375 C640.20332593 109.79511682 660.33407928 174.46379658 662.09129727 233.04354441 C662.12428617 236.11917355 662.12871163 239.19332682 662.12025452 242.26911926 C662.12110894 243.43178855 662.12196337 244.59445784 662.12284368 245.79235953 C662.12447759 249.64910548 662.11901163 253.50580695 662.11352539 257.36254883 C662.11268444 260.14275642 662.11335826 262.92296317 662.1139679 265.70317078 C662.1144899 271.66869877 662.11137705 277.63421576 662.10573006 283.59974098 C662.09757101 292.22467697 662.09499534 300.84960768 662.09374207 309.47454711 C662.09155844 323.47107153 662.08491711 337.46759009 662.07543945 351.46411133 C662.06624746 365.05297822 662.05918686 378.64184352 662.05493164 392.23071289 C662.05466364 393.07816478 662.05439565 393.92561666 662.05411953 394.79874891 C662.05203986 401.42728914 662.05008302 408.0558294 662.04816496 414.68436968 C662.03874703 447.1229185 662.018625 479.56145264 662 512 C612.17 512 562.34 512 511 512 C510.95101562 492.57382813 510.90203125 473.14765625 510.8515625 453.1328125 C510.81617318 440.81900615 510.78030323 428.50520401 510.7421875 416.19140625 C510.72218205 409.72021529 510.70229802 403.24902398 510.68261719 396.77783203 C510.68014575 395.96686919 510.67767431 395.15590636 510.67512798 394.32036889 C510.63550122 381.25948348 510.60271825 368.19858953 510.57250018 355.13767935 C510.54129204 341.71527962 510.50264328 328.29291589 510.45720994 314.87055671 C510.42944763 306.60055256 510.40736206 298.33057448 510.39273749 290.06053649 C510.38212556 284.37527514 510.36423082 278.69006454 510.34083296 273.00484158 C510.32757896 269.73381304 510.31840747 266.46286721 510.31578636 263.19181061 C510.28060236 225.92742676 505.85798584 189.53324522 478.69921875 161.63671875 C444.57914043 129.30361671 392.77566417 125.69848725 348.23095703 126.84765625 C304.09002272 128.26750881 256.63401632 138.19458175 224 170 C223.13375 170.825 222.2675 171.65 221.375 172.5 C220.59125 173.325 219.8075 174.15 219 175 C218.35756348 175.57323327 217.71512695 176.14646653 217.05322266 176.7370705 C211.49571864 182.12341127 210.06961398 186.06827255 209.94117641 193.74651343 C209.9605882 194.99652889 209.97999998 196.24654436 210 197.53443909 C209.99236992 198.89516441 209.98123179 200.25587377 209.96691227 201.61654514 C209.93782188 205.33651144 209.9581824 209.05478353 209.98693204 212.77469122 C210.00921672 216.79306091 209.98520141 220.81119137 209.96690369 224.82954407 C209.94152378 231.78514367 209.94526231 238.74023431 209.96896362 245.69583321 C210.0031887 255.7522652 209.99321154 265.80827438 209.97256029 275.8647257 C209.94024793 292.18177698 209.94351946 308.4986184 209.96923828 324.81567383 C209.99414043 340.66304571 210.00214921 356.51027909 209.98779297 372.35766602 C209.98691944 373.34499503 209.98604592 374.33232405 209.98514593 375.34957212 C209.97818244 383.07151285 209.9702414 390.7934525 209.96199155 398.51539195 C209.92182725 436.34372578 209.96690241 474.17152227 210 512 C159.84 512 109.68 512 58 512 C57.96261719 492.15230469 57.92523437 472.30460937 57.88671875 451.85546875 C57.85643872 439.27277987 57.82542971 426.69009912 57.79101562 414.10742188 C57.77296792 407.49471088 57.75510432 400.88199943 57.73754883 394.26928711 C57.7342373 393.02624806 57.7342373 393.02624806 57.73085886 391.75809711 C57.69557574 378.4134077 57.67066847 365.06871834 57.64965298 351.7239997 C57.62782105 338.00891038 57.59470112 324.29388111 57.55129844 310.57884294 C57.52490846 302.12917687 57.50712018 293.6795855 57.50065396 285.22988031 C57.49536105 279.42031361 57.47901502 273.61084056 57.45433434 267.80132421 C57.44045131 264.45921956 57.43274835 261.11742253 57.43499184 257.77526855 C57.45129493 222.25601451 51.86254475 188.12177003 26.25 161.6875 C5.905725 141.62258904 -23.06458895 133.34854346 -50.625 129.3125 C-51.43469238 129.19310059 -52.24438477 129.07370117 -53.07861328 128.95068359 C-106.55881704 121.61692277 -171.41281957 126.66311431 -216.25 159.4375 C-230.99974697 170.53549127 -230.99974697 170.53549127 -242 185 C-242.09925636 186.78216198 -242.13388539 188.56805839 -242.1386652 190.35297585 C-242.14413964 191.4960283 -242.14961409 192.63908075 -242.15525442 193.81677115 C-242.15623253 195.08328556 -242.15721064 196.34979997 -242.15821838 197.6546936 C-242.16278152 199.00523094 -242.16778118 200.35576685 -242.17318195 201.70630109 C-242.18680073 205.43009393 -242.1941922 209.15387761 -242.20060861 212.87768888 C-242.20859618 216.88860878 -242.22229958 220.89950951 -242.23532104 224.91041565 C-242.25710717 231.86377998 -242.27524383 238.81714622 -242.29092598 245.77052689 C-242.31360519 255.82404033 -242.34175069 265.87753257 -242.37124526 275.93102805 C-242.41894511 292.24079321 -242.4622028 308.55056702 -242.50268555 324.86035156 C-242.54202831 340.70703811 -242.58346299 356.55371691 -242.62768555 372.40039062 C-242.63043505 373.38657812 -242.63318456 374.37276561 -242.63601738 375.38883758 C-242.65753559 383.1010748 -242.67917543 390.81331168 -242.70085371 398.52554846 C-242.80714404 436.35035006 -242.9028224 474.17517177 -243 512 C-292.83 512 -342.66 512 -394 512 C-394 346.34 -394 180.68 -394 10 C-346.81 10 -299.62 10 -251 10 C-250.67 31.78 -250.34 53.56 -250 76 C-243.07 69.07 -236.14 62.14 -229 55 C-223.39693384 50.46230558 -217.88461759 46.11628263 -212 42 C-211.3905957 41.56187988 -210.78119141 41.12375977 -210.15332031 40.67236328 C-150.64969256 -2.04446867 -70.79388913 -9.60197736 0 0 Z " fill="#FF002D" transform="translate(2600,703)"/>
<path d="M0 0 C0.92891052 0.00093658 1.85782104 0.00187317 2.81488037 0.00283813 C17.15109046 0.0341009 31.32923458 0.3229196 45.5625 2.1875 C46.76422852 2.34347656 47.96595703 2.49945312 49.20410156 2.66015625 C84.75511178 7.43210393 119.24797262 16.32366778 151.5625 32.1875 C152.48659668 32.63996094 153.41069336 33.09242188 154.36279297 33.55859375 C188.41163395 50.39762518 220.14662969 74.01374065 243.5625 104.1875 C244.325625 105.12207031 245.08875 106.05664062 245.875 107.01953125 C287.69541341 159.22802812 303.01058228 228.35834681 296.375 294.0625 C290.41280214 347.29157871 268.89784829 397.33262241 232.0703125 436.46875 C230.29747467 438.39070503 228.62306591 440.30427239 226.97265625 442.32421875 C225.02380074 444.63947173 223.17939028 446.56551185 220.875 448.5 C217.86568744 451.05707821 214.95258138 453.68406708 212.0625 456.375 C150.76669741 511.41993688 62.5263724 531.98719878 -18.06591797 527.68066406 C-19.41902643 527.60097492 -20.7720531 527.51988649 -22.125 527.4375 C-23.18657318 527.37314758 -23.18657318 527.37314758 -24.26959229 527.30749512 C-92.49096178 523.04829839 -165.64911918 500.693375 -216.421875 453.02734375 C-218.68910736 450.89859973 -218.68910736 450.89859973 -222.4375 448.1875 C-222.7675 525.0775 -223.0975 601.9675 -223.4375 681.1875 C-273.2675 681.1875 -323.0975 681.1875 -374.4375 681.1875 C-374.4375 460.7475 -374.4375 240.3075 -374.4375 13.1875 C-327.2475 13.1875 -280.0575 13.1875 -231.4375 13.1875 C-231.1075 35.2975 -230.7775 57.4075 -230.4375 80.1875 C-226.8075 76.8875 -223.1775 73.5875 -219.4375 70.1875 C-216.66719341 68.007213 -213.93106267 65.90874041 -211.0625 63.875 C-209.9336438 63.06832886 -209.9336438 63.06832886 -208.78198242 62.24536133 C-199.61277406 55.78218992 -190.09425535 49.88958411 -180.4375 44.1875 C-179.79844727 43.80787109 -179.15939453 43.42824219 -178.50097656 43.03710938 C-136.0823959 18.18005874 -84.11468973 5.05029311 -35.4375 1.1875 C-34.40713623 1.10137451 -33.37677246 1.01524902 -32.31518555 0.92651367 C-21.53994404 0.10774405 -10.80184095 -0.0141281 0 0 Z M-217.4375 192.1875 C-218.4604567 192.9633696 -219.48341339 193.7392392 -220.53736877 194.53862 C-225.0454158 199.10869707 -224.29906533 204.78082621 -224.26147461 210.84301758 C-224.2768074 212.11690842 -224.2921402 213.39079926 -224.30793762 214.70329285 C-224.34800484 218.1871661 -224.34985583 221.67006108 -224.34224772 225.15411973 C-224.33903035 228.06894178 -224.35370989 230.98356807 -224.36806399 233.89834803 C-224.40131585 240.77979407 -224.40268278 247.66074887 -224.38452148 254.54223633 C-224.36641485 261.62516903 -224.40330348 268.70631196 -224.46723169 275.7889393 C-224.52020495 281.88353333 -224.53806432 287.9775599 -224.52831846 294.07237548 C-224.522897 297.70656531 -224.53060665 301.33947931 -224.57246208 304.97345924 C-224.61745363 309.03140597 -224.58918815 313.08575124 -224.55444336 317.14379883 C-224.57737457 318.33631256 -224.60030579 319.52882629 -224.62393188 320.75747681 C-224.50143819 327.2443665 -223.68073166 330.65814572 -219.04005432 335.34892273 C-217.53189086 336.65901894 -216.00041577 337.94323179 -214.4375 339.1875 C-213.07238281 340.40566406 -213.07238281 340.40566406 -211.6796875 341.6484375 C-208.95160516 343.85431266 -206.20685765 346.03355516 -203.4375 348.1875 C-202.88852051 348.61820801 -202.33954102 349.04891602 -201.77392578 349.49267578 C-191.90008943 357.18711439 -181.55076713 363.44850814 -170.4375 369.1875 C-169.70611816 369.57147949 -168.97473633 369.95545898 -168.22119141 370.35107422 C-131.26547087 389.57067162 -87.2350098 398.21388477 -45.76953125 398.390625 C-44.69160812 398.39632507 -43.613685 398.40202515 -42.50309753 398.40789795 C-40.23164834 398.41727991 -37.96018596 398.42385457 -35.6887207 398.42773438 C-32.30328929 398.43734866 -28.91849038 398.46840102 -25.53320312 398.5 C16.14219868 398.70261906 62.4917016 390.96943252 96.5625 365.1875 C97.46742187 364.50300781 98.37234375 363.81851563 99.3046875 363.11328125 C126.54647484 341.62082297 141.30164885 313.35019564 145.9609375 279.2734375 C149.52098499 246.65570512 142.01517782 213.15728306 121.6875 187.125 C120.32122744 185.4719145 118.9461673 183.82605338 117.5625 182.1875 C116.56476563 180.96933594 116.56476563 180.96933594 115.546875 179.7265625 C87.73001033 147.06750287 40.73558754 133.7372208 -0.4375 130.1875 C-1.42669434 130.10137451 -2.41588867 130.01524902 -3.43505859 129.92651367 C-12.52129764 129.20314444 -21.57728351 128.98603838 -30.6875 129 C-31.42427979 129.00060425 -32.16105957 129.0012085 -32.92016602 129.00183105 C-99.72986988 129.14917898 -167.664706 145.4652966 -217.4375 192.1875 Z " fill="#FF002D" transform="translate(4481.4375,699.8125)"/>
<path d="M0 0 C0.92729919 0.00093658 1.85459839 0.00187317 2.80999756 0.00283813 C56.47453375 0.11998441 108.33745291 10.79994856 157.625 32.1875 C158.4588623 32.5484375 159.29272461 32.909375 160.15185547 33.28125 C185.76368839 44.5059523 211.77475486 60.33725486 231.625 80.1875 C231.955 58.0775 232.285 35.9675 232.625 13.1875 C279.815 13.1875 327.005 13.1875 375.625 13.1875 C375.625 178.8475 375.625 344.5075 375.625 515.1875 C328.435 515.1875 281.245 515.1875 232.625 515.1875 C232.295 493.0775 231.965 470.9675 231.625 448.1875 C227.005 452.1475 222.385 456.1075 217.625 460.1875 C214.93056376 462.26235999 212.28910154 464.2630637 209.5 466.1875 C208.80390625 466.67259033 208.1078125 467.15768066 207.390625 467.6574707 C198.73332137 473.60267513 189.73044978 478.96318479 180.625 484.1875 C179.94066895 484.58533691 179.25633789 484.98317383 178.55126953 485.39306641 C118.8857271 519.79656713 44.95297372 531.60931856 -23.125 527.4375 C-24.18282684 527.37314758 -24.18282684 527.37314758 -25.26202393 527.30749512 C-89.30467168 523.29799934 -151.71852532 503.23115958 -202.375 463.1875 C-203.41269531 462.37539062 -204.45039063 461.56328125 -205.51953125 460.7265625 C-221.06033283 448.07846468 -235.74944874 433.53930485 -247.375 417.1875 C-247.80893066 416.59259766 -248.24286133 415.99769531 -248.68994141 415.38476562 C-275.55503894 378.48501918 -290.36138266 336.3569123 -295.375 291.1875 C-295.50777344 290.00671875 -295.64054687 288.8259375 -295.77734375 287.609375 C-301.88734346 219.64609051 -281.7861958 151.74154702 -238.15234375 99.28125 C-228.16334747 87.46861699 -217.56569895 76.7494768 -205.375 67.1875 C-204.28285637 66.30592219 -203.19175404 65.42305319 -202.1015625 64.5390625 C-145.36591108 18.81518997 -71.88845858 -0.09421078 0 0 Z M-103.375 169.1875 C-104.31085937 169.93773437 -105.24671875 170.68796875 -106.2109375 171.4609375 C-117.47548303 181.01981052 -125.62072319 193.17353874 -132.375 206.1875 C-132.84550781 207.08726562 -133.31601563 207.98703125 -133.80078125 208.9140625 C-148.29739876 238.62539621 -149.08967335 276.07167929 -138.70214844 307.20410156 C-128.85369949 334.82581738 -109.63409362 357.49216637 -84.375 372.1875 C-83.78348145 372.53409668 -83.19196289 372.88069336 -82.58251953 373.23779297 C-52.31210969 390.74545463 -15.90458767 398.23266006 18.8359375 398.390625 C19.87421188 398.39763931 20.91248627 398.40465363 21.98222351 398.41188049 C25.3215269 398.42930668 28.66065279 398.43573443 32 398.4375 C33.14193817 398.43817474 34.28387634 398.43884949 35.4604187 398.43954468 C53.0373381 398.42304603 70.23444746 397.95411747 87.625 395.1875 C88.71345215 395.01589355 89.8019043 394.84428711 90.92333984 394.66748047 C141.71862801 386.35390325 187.92106023 366.89143977 224.625 330.1875 C224.96374513 327.82220107 224.96374513 327.82220107 224.9597168 325.02996826 C224.98269836 323.93678284 225.00567993 322.84359741 225.02935791 321.71728516 C225.04416199 320.51217285 225.05896606 319.30706055 225.07421875 318.06542969 C225.0969989 316.80015442 225.11977905 315.53487915 225.14324951 314.23126221 C225.21645169 310.02413291 225.26685176 305.81688326 225.3125 301.609375 C225.32039173 300.89224114 225.32828346 300.17510729 225.33641434 299.4362421 C225.40931714 292.66313613 225.47217119 285.88998785 225.51463318 279.11661911 C225.56962075 270.47408232 225.67076645 261.83485778 225.83558178 253.1936996 C225.94768568 247.10775092 226.0051795 241.02269236 226.0235796 234.93574834 C226.0360272 231.30631136 226.07159874 227.68075163 226.16635132 224.05245209 C227.19578519 206.51692123 227.19578519 206.51692123 219.81776428 191.38933182 C217.47049323 189.20131281 215.05837961 187.25372805 212.41794682 185.43143082 C209.61000296 183.48330394 207.05400826 181.25883173 204.4375 179.0625 C202.21306912 177.36902701 199.9250097 175.77657542 197.625 174.1875 C196.95968262 173.72666016 196.29436523 173.26582031 195.60888672 172.79101562 C148.09337081 140.37095512 89.81175636 128.91260008 33.0625 129 C32.32687836 129.00060425 31.59125671 129.0012085 30.83334351 129.00183105 C-16.95158885 129.10754565 -65.51836116 138.45984817 -103.375 169.1875 Z " fill="#FF002D" transform="translate(3632.375,699.8125)"/>
<path d="M0 0 C1.06469513 0.00093658 2.12939026 0.00187317 3.22634888 0.00283813 C18.7432413 0.03241188 34.08873469 0.21076389 49.5 2.1875 C51.32966309 2.41348877 51.32966309 2.41348877 53.19628906 2.64404297 C125.13477304 11.68672978 199.37444658 40.73777055 245.4375 99.3125 C281.4956163 146.45041436 295.60560523 201.57494643 291.75 260.5 C291.6883667 261.52182373 291.6267334 262.54364746 291.56323242 263.59643555 C290.58086587 277.24653613 288.37854056 290.56808095 286.5 304.1875 C135.03 304.1875 -16.44 304.1875 -172.5 304.1875 C-167.17146051 325.50165796 -161.34353298 343.63228034 -146.5 360.1875 C-145.95988281 360.81011719 -145.41976562 361.43273438 -144.86328125 362.07421875 C-135.21637914 372.49870491 -122.32832176 379.48901813 -109.5 385.1875 C-108.47229492 385.64552002 -108.47229492 385.64552002 -107.42382812 386.11279297 C-86.83385806 395.09811774 -64.67601116 399.31626992 -42.5 402.1875 C-41.39914062 402.33848145 -40.29828125 402.48946289 -39.1640625 402.64501953 C2.53755789 408.12367629 48.77847019 408.156978 90.44537354 402.46612549 C92.68291271 402.16269542 94.92206671 401.87361478 97.16162109 401.58544922 C147.93594353 394.98227184 200.10858741 383.73529444 246.02734375 360.39453125 C248.5 359.1875 248.5 359.1875 250.5 359.1875 C250.8309668 359.80455811 251.16193359 360.42161621 251.50292969 361.05737305 C257.78479624 372.75318825 264.13563173 384.39544559 270.76660156 395.8972168 C275.45789496 404.05820787 279.99533897 412.30167903 284.52407837 420.5534668 C289.58588995 429.77436001 294.73556047 438.93932939 300.046875 448.01953125 C300.50578125 448.81101562 300.9646875 449.6025 301.4375 450.41796875 C301.83839844 451.10270264 302.23929688 451.78743652 302.65234375 452.49291992 C303.5 454.1875 303.5 454.1875 303.5 456.1875 C301.40849446 457.79160454 299.32861917 459.250369 297.125 460.6875 C296.11276367 461.3518103 296.11276367 461.3518103 295.08007812 462.02954102 C217.81893609 511.99657649 118.83379894 526.22164432 8.5 528.1875 C7.47632324 528.16961426 6.45264648 528.15172852 5.39794922 528.13330078 C-78.6447728 526.44974282 -169.98237216 510.77562547 -235.5 454.1875 C-236.30308594 453.49527344 -237.10617187 452.80304688 -237.93359375 452.08984375 C-285.87485269 409.82482987 -311.02598388 350.73871662 -315.2890625 287.33349609 C-319.32103211 214.22531034 -302.9351092 144.08960631 -253.41796875 88.73046875 C-248.08987762 82.83249698 -242.68659451 77.19569556 -236.5 72.1875 C-235.40102882 71.27605715 -234.30207184 70.36459719 -233.203125 69.453125 C-168.24496409 16.05494976 -82.10158777 -0.09354347 0 0 Z M-142.5 148.1875 C-143.20640625 148.81140625 -143.9128125 149.4353125 -144.640625 150.078125 C-160.82376978 165.24185909 -168.25334969 185.95424844 -172.5 207.1875 C-62.61 207.1875 47.28 207.1875 160.5 207.1875 C159.78276033 200.73234298 158.93438404 195.4457992 156.875 189.4375 C156.60848633 188.65673096 156.34197266 187.87596191 156.06738281 187.0715332 C147.04939881 161.54414469 127.9837383 141.78018942 103.80102539 130.02197266 C71.39149676 114.88956829 36.23186221 110.95310994 0.8125 111 C-0.46216125 111.00090637 -0.46216125 111.00090637 -1.76257324 111.00183105 C-49.43074101 111.0931878 -105.26901447 114.75075504 -142.5 148.1875 Z " fill="#FF002D" transform="translate(6030.5,699.8125)"/>
<path d="M0 0 C24.60702465 22.37510907 35.60730679 51.05896348 37.32714844 83.88232422 C38.64725935 149.6549093 2.82944279 205.95862811 -41.11035156 251.72607422 C-44.7669304 255.43989891 -48.5435642 258.96791249 -52.50097656 262.35888672 C-54.28322799 263.88695303 -56.04857966 265.43475953 -57.80566406 266.99169922 C-131.78884391 332.17944435 -232.52475197 365.53073258 -330.56384277 359.49639893 C-427.79158267 353.33750604 -517.89610439 311.94057888 -607.31933594 267.2121582 C-610.30855115 265.71528104 -613.29908897 264.22111736 -616.29039001 262.7284174 C-619.2092175 261.2712532 -622.12651299 259.81102919 -625.04394531 258.35107422 C-626.62840454 257.56036278 -626.62840454 257.56036278 -628.24487305 256.75367737 C-634.19837459 253.76754104 -640.06705012 250.67202928 -645.85644531 247.37841797 C-644.62042782 243.6703655 -643.56261054 243.29312882 -640.28222656 241.29638672 C-638.8323938 240.40367065 -638.8323938 240.40367065 -637.35327148 239.49291992 C-635.77703003 238.53905396 -635.77703003 238.53905396 -634.16894531 237.56591797 C-631.96267652 236.21002481 -629.75695901 234.85323426 -627.55175781 233.49560547 C-626.4305957 232.80821289 -625.30943359 232.12082031 -624.15429688 231.41259766 C-619.2520269 228.38878115 -614.39646963 225.29371518 -609.54394531 222.19091797 C-607.72247781 221.02922899 -605.90086505 219.86776774 -604.07910156 218.70654297 C-603.2027002 218.14773438 -602.32629883 217.58892578 -601.42333984 217.01318359 C-579.3482151 202.95430636 -557.12832087 189.12296725 -534.85644531 175.37841797 C-533.8698291 174.7691748 -532.88321289 174.15993164 -531.86669922 173.53222656 C-505.54492509 157.2837595 -479.09714103 141.2673216 -452.47363281 125.51904297 C-449.26587934 123.62140355 -446.06078681 121.71931428 -442.85644531 119.81591797 C-405.26947915 97.50986936 -367.27797688 75.76271912 -328.43212891 55.71484375 C-325.22074536 54.04857706 -322.02562156 52.35275917 -318.83105469 50.65454102 C-240.33591384 9.0021771 -131.54616624 -47.14081536 0 0 Z " fill="#FF002D" transform="translate(1919.8564453125,867.62158203125)"/>
<path d="M0 0 C1.96453125 0.20882813 1.96453125 0.20882813 3.96875 0.421875 C32.99709578 3.60791295 61.80553878 9.43851132 90 17 C90.42542706 28.3908658 89.13734865 39.63250624 88.03125 50.953125 C87.82897319 53.06585033 87.62719912 55.17862385 87.42590332 57.29144287 C86.89825224 62.81557372 86.36383355 68.33902902 85.82794189 73.86236572 C85.28089838 79.51331602 84.74034201 85.16488652 84.19921875 90.81640625 C83.1391152 101.87821627 82.07185196 112.93932262 81 124 C77.84695182 124.85917971 75.60977645 124.99773663 72.35961914 124.53442383 C71.43689713 124.40697784 70.51417511 124.27953186 69.56349182 124.14822388 C68.06446571 123.92983353 68.06446571 123.92983353 66.53515625 123.70703125 C65.48670029 123.56095428 64.43824432 123.41487732 63.35801697 123.26437378 C61.10113965 122.94981565 58.84468679 122.63220022 56.58862305 122.31185913 C50.65686761 121.47182145 44.72117555 120.66084022 38.78515625 119.8515625 C37.60079987 119.68994125 36.41644348 119.52832001 35.19619751 119.36180115 C19.49778635 117.23465197 3.76934894 115.50249573 -12 114 C-13.77165527 113.82428467 -13.77165527 113.82428467 -15.57910156 113.64501953 C-31.03141037 112.15042283 -46.42437108 111.80158426 -61.9375 111.75 C-62.83003479 111.74464233 -63.72256958 111.73928467 -64.64215088 111.73376465 C-82.16475327 111.65377675 -99.62085974 112.66786355 -116.8125 116.25 C-117.85946045 116.46543457 -118.9064209 116.68086914 -119.98510742 116.90283203 C-141.42502915 121.52127079 -160.51782888 130.64996602 -173.25390625 149.203125 C-184.89873118 167.85568574 -184.54499834 188.17497509 -186 210 C-112.41 210 -38.82 210 37 210 C37 249.93 37 289.86 37 331 C-36.59 331 -110.18 331 -186 331 C-186 456.73 -186 582.46 -186 712 C-235.83 712 -285.66 712 -337 712 C-337.06021772 652.53207201 -337.06021772 652.53207201 -337.07695007 633.89337158 C-337.07754207 633.23479433 -337.07813408 632.57621708 -337.07874402 631.89768294 C-337.09863957 609.70447543 -337.11438305 587.51126698 -337.12702942 565.3180542 C-337.12744359 564.59308549 -337.12785776 563.86811678 -337.12828448 563.12117932 C-337.1372656 547.36131837 -337.1455758 531.60145714 -337.15319599 515.84159549 C-337.15693762 508.11168208 -337.16082734 500.38176876 -337.16479492 492.65185547 C-337.1651872 491.88268305 -337.16557948 491.11351063 -337.16598364 490.32102996 C-337.17874156 465.44129731 -337.20125585 440.56158525 -337.22889166 415.68186506 C-337.25726623 390.09026334 -337.27567407 364.498673 -337.28174497 338.90705582 C-337.28260929 335.28292396 -337.2835862 331.65879215 -337.28463173 328.03466034 C-337.284834 327.32145939 -337.28503627 326.60825843 -337.28524467 325.87344533 C-337.28877405 314.44573037 -337.30264527 303.01805084 -337.3204961 291.59035026 C-337.33826743 280.06964146 -337.34463589 268.54898106 -337.34050413 257.02825651 C-337.33859401 250.79907759 -337.34139739 244.57000162 -337.35761642 238.34084129 C-337.47271867 191.77354668 -336.41851452 143.5453347 -312.97509766 101.74121094 C-311.98211221 99.96805816 -311.02686685 98.17790892 -310.07421875 96.3828125 C-302.87016415 83.03935085 -293.39339369 71.93207568 -283 61 C-282.38125 60.31679688 -281.7625 59.63359375 -281.125 58.9296875 C-245.80313663 21.24252078 -189.31955285 6.43860266 -140 0 C-138.89672363 -0.15098145 -137.79344727 -0.30196289 -136.65673828 -0.45751953 C-92.1482226 -6.27115826 -44.53202074 -4.900653 0 0 Z " fill="#FF002D" transform="translate(5190,503)"/>
<path d="M0 0 C0.95387604 0.00027191 1.90775208 0.00054382 2.89053345 0.00082397 C17.03839389 0.01938585 31.09070948 0.21139008 45.125 2.1875 C45.8871582 2.29465332 46.64931641 2.40180664 47.43457031 2.51220703 C55.75961588 3.74747837 63.45448197 5.66881019 71.125 9.1875 C70.39573203 22.87960185 69.14622519 36.51336587 67.875 50.1640625 C67.65447782 52.54819423 67.43410283 54.93233958 67.21386719 57.3164978 C66.75479364 62.28031575 66.29403404 67.24397339 65.83203125 72.20751953 C65.24045534 78.56450588 64.65303166 84.92186795 64.0668335 91.27935219 C63.61376736 96.18825138 63.15858736 101.09695278 62.70275879 106.00559616 C62.48523322 108.35067221 62.26834908 110.69580786 62.05212402 113.04100418 C61.75043072 116.30960299 61.44590588 119.57792598 61.140625 122.84619141 C61.05228394 123.80936279 60.96394287 124.77253418 60.8729248 125.76489258 C60.44852204 130.27719688 59.95232697 134.72667835 59.125 139.1875 C52.96190943 138.49841073 46.88019674 137.48156442 40.77050781 136.42285156 C30.67031845 134.67829642 20.58139406 132.93995103 10.375 131.9375 C9.68889648 131.86990479 9.00279297 131.80230957 8.29589844 131.73266602 C-6.25947999 130.44047715 -20.83114917 129.97988542 -35.4375 130 C-36.67066452 130.00090637 -36.67066452 130.00090637 -37.92874146 130.00183105 C-82.48083616 130.09008393 -132.56476017 135.36064664 -165.95703125 168.15625 C-176.95635875 178.93100588 -176.95635875 178.93100588 -181.25976086 192.9252367 C-181.2692174 194.07774569 -181.27867394 195.23025468 -181.28841704 196.41768819 C-181.28114568 198.31018844 -181.28114568 198.31018844 -181.27372742 200.24092102 C-181.27916715 201.59817652 -181.28591882 202.95542729 -181.29386932 204.31267041 C-181.31191265 208.04114505 -181.31133539 211.76942071 -181.30773985 215.49792874 C-181.3071166 219.51904281 -181.32373045 223.54008977 -181.33825684 227.56117249 C-181.3610614 234.52759102 -181.37293115 241.49395948 -181.37738609 248.46041298 C-181.38384299 258.53273681 -181.40677225 268.60497008 -181.43372939 278.67725744 C-181.47701722 295.0186309 -181.50697257 311.36000055 -181.52856445 327.70141602 C-181.54956816 343.57610958 -181.57687217 359.45077181 -181.61254883 375.32543945 C-181.61476234 376.31384046 -181.61697585 377.30224146 -181.61925644 378.32059401 C-181.63661662 386.05047402 -181.65434237 393.78035318 -181.67218363 401.51023209 C-181.75954913 439.40263529 -181.81502719 477.29502442 -181.875 515.1875 C-232.035 515.1875 -282.195 515.1875 -333.875 515.1875 C-333.875 349.5275 -333.875 183.8675 -333.875 13.1875 C-286.355 13.1875 -238.835 13.1875 -189.875 13.1875 C-189.545 34.6375 -189.215 56.0875 -188.875 78.1875 C-182.20559117 70.90556433 -182.20559117 70.90556433 -175.75 63.4375 C-163.39145811 48.87322845 -145.55622005 38.02439707 -128.875 29.1875 C-128.08206543 28.7637207 -127.28913086 28.33994141 -126.47216797 27.90332031 C-87.48740567 7.38170358 -43.65222715 -0.04661436 0 0 Z " fill="#FF002D" transform="translate(5634.875,699.8125)"/>
</svg>
